<svg xmlns="http://www.w3.org/2000/svg" xmlns:xlink="http://www.w3.org/1999/xlink" width="62.056" height="64.271" viewBox="0 0 62.056 64.271">
  <defs>
    <clipPath id="clip-path">
      <rect id="Rectangle_22" data-name="Rectangle 22" width="62.056" height="64.271" fill="none"/>
    </clipPath>
  </defs>
  <g id="Group_52" data-name="Group 52" transform="translate(76 -229)">
    <g id="Group_50" data-name="Group 50" transform="translate(-76 229)" clip-path="url(#clip-path)">
      <path id="Path_450" data-name="Path 450" d="M57.144,41.55a6.775,6.775,0,0,1-1.2,2.279c-3.08,3.838-3.923,8.6-3.707,13.432a6.84,6.84,0,0,1-2.152,5.3,6.357,6.357,0,0,1-5.945,1.5,55.478,55.478,0,0,0-23.719-.918,6.315,6.315,0,0,1-5.293-1.53,6.733,6.733,0,0,1-2.243-4.638C12.6,52.484,9.511,47.162,7.054,43.5q-.141-.21-.267-.431L5.737,41.23a8.582,8.582,0,0,1-4.572-4.187C-.576,33.706-.49,29,2.273,26.234a6.574,6.574,0,0,1,3.262-1.786l.154-.034c.047-.071.095-.141.142-.21.365-.528.742-1.045,1.141-1.546a16.266,16.266,0,0,1,3.819-3.589,10.715,10.715,0,0,1,1.142-.643q.547-.264,1.084-.548a28.824,28.824,0,0,0,8.121-6.192c1.154-1.327,2.783-3.634,2.453-5.531a3.121,3.121,0,0,0-.961-1.7L18.089,0,24.4.3c2.454.115,6.1,1.964,8.2,3.215,2.047,1.22,5.085,3.282,6.383,5.71.484-.018.968-.044,1.452-.059a23.254,23.254,0,0,1,4.632.261,15.093,15.093,0,0,1,9.639,5.72,4.522,4.522,0,0,1,1.993.035c2.6.64,3.973,3.322,4.642,5.721a22.442,22.442,0,0,1,.533,8.5,16.243,16.243,0,0,1-3.828,9.153Z" transform="translate(0 -0.002)" fill="#fff" fill-rule="evenodd"/>
      <path id="Path_451" data-name="Path 451" d="M68.881,52.729c3.067.144,12.412,5.21,12.91,8.545.239,1.6,10.541-2.843,16.6,6.762.095.15.351-.115.767-.3,7.572-3.449,8.686,30.426-10.652,19.07-3.579-2.191,1.219,8.523-2.788,10.824-2.6,1.495-5.881.174-4.271-6.459,3.776-15.562-19.63-3.824-24.592-2.245-10.625,3.38-12.653-10.674-6.226-12.1l1.024-.226c.223-.049,2.466-4.321,5.892-5.974,9.007-4.348,16.594-12.732,11.332-17.9" transform="translate(-44.589 -50.013)" fill="#ba2f52" fill-rule="evenodd"/>
      <path id="Path_452" data-name="Path 452" d="M109.813,121.2c.187,3.528-1.975,6.8-4.145,9.144-4.865,5.246-10.813,6.168-14.234,11.188-.133.195-1.635,1.665-1.765,1.845,4.059,2.153,22.81-8.953,25.951,1.215-5.869-7.578-28.568,6.439-28.418-.134a2.393,2.393,0,0,0-.382.429,5.092,5.092,0,0,0,.142,5.138c1.486,2.456,4.249,2.445,6.565,1.708.592-.188,1.185-.426,1.766-.655.884-.348,1.765-.7,2.648-1.054,2.242-.887,4.5-1.738,6.788-2.455a32.7,32.7,0,0,1,7.911-1.629c2.364-.118,5.027.237,6.774,2.2,2.041,2.3,1.88,5.652,1.178,8.544a8.656,8.656,0,0,0-.267,3.5c.052.228.15.547.363.652a1.681,1.681,0,0,0,1.336-.242.672.672,0,0,0,.22-.2c.467-.65.419-2.355.377-3.136-.063-1.178-.223-2.345-.3-3.521-.092-1.464-.026-3.1,1.19-4.017a2.707,2.707,0,0,1,3.148.06c2.883,1.7,7.062,3.388,9.9.655,1.617-1.56,2.427-4.138,2.739-6.429a17.916,17.916,0,0,0-.311-6.669c-.169-.646-.778-2.476-1.459-2.684h0c-.639,2.9-3.271,5.7-7.948,6.73q5.105-3.012,4.588-6.882a2.3,2.3,0,0,1-.184-.252,11.1,11.1,0,0,0-9.008-5.445c-6.038-.52-15.965,2.83-19.05,7.794.957-5.215,10.32-7.235,11.053-10.168a7.631,7.631,0,0,0-1.338-1.511,22.264,22.264,0,0,0-3.536-2.5c-.743-.436-1.51-.848-2.289-1.22" transform="translate(-81.806 -114.951)" fill="#fac3d1" fill-rule="evenodd"/>
      <path id="Path_453" data-name="Path 453" d="M495.358,173.1c-.157-.155-.3-.286-.389-.368a17.556,17.556,0,0,0-1.409-1.127c3.028,2.423-5.915,7.777-7.454,10.664q-.148.278-.27.563l-.007.016a6.31,6.31,0,0,1,.4-.621c2.652-3.67,9.461-5.5,10.082-7.983a5.848,5.848,0,0,0-.949-1.143m17.935,8.931.018.028,0,0-.019-.031" transform="translate(-461.137 -162.765)" fill="#f090a8" fill-rule="evenodd"/>
      <path id="Path_454" data-name="Path 454" d="M939.941,306.273q5.105-3.012,4.588-6.881a2.3,2.3,0,0,1-.184-.252,11.42,11.42,0,0,0-4.238-4.1q4.539,3.91-.167,11.231" transform="translate(-892.171 -279.842)" fill="#f090a8" fill-rule="evenodd"/>
      <path id="Path_455" data-name="Path 455" d="M87.246,571.808a2.262,2.262,0,0,1-.043-.506,2.393,2.393,0,0,0-.382.429,4.783,4.783,0,0,0-.32,4.132l.006.018.023.066,0,.009.025.068h0l.007.018.02.051.01.027.018.046.015.037.016.039.017.04.013.031.022.048.01.023.026.055.007.016.028.058.007.014.031.061,0,.008.033.063,0,.007.036.065,0,0,.037.065v0l.039.066q.032.053.065.1l.013.021.047.07.045.066,0,0,0,0,0,0,0,0,0,0c1.522,2.17,4.157,2.131,6.379,1.424.592-.188,1.186-.426,1.766-.655.884-.348,1.765-.7,2.648-1.054,2.242-.887,4.5-1.738,6.788-2.455a32.694,32.694,0,0,1,7.912-1.629c2.364-.118,5.027.237,6.774,2.2a6,6,0,0,1,.394.494,6.155,6.155,0,0,0-1.192-2.029c-1.747-1.968-4.41-2.323-6.774-2.2-4.506.225-23.408,8.116-24.6.559" transform="translate(-81.807 -541.8)" fill="#f090a8" fill-rule="evenodd"/>
      <path id="Path_456" data-name="Path 456" d="M756.143,412.368a4.079,4.079,0,0,0,.091.815c.052.228.15.546.363.652a1.681,1.681,0,0,0,1.336-.242.673.673,0,0,0,.22-.2c.467-.65.419-2.355.377-3.136-.063-1.178-.223-2.345-.3-3.521-.092-1.464-.025-3.1,1.19-4.017a2.707,2.707,0,0,1,3.148.06c2.883,1.7,7.062,3.388,9.9.655,1.617-1.56,2.427-4.138,2.739-6.429a17.914,17.914,0,0,0-.311-6.669,7.275,7.275,0,0,0-1.074-2.4c.127.347.223.664.275.865,2.54,9.715-6.468,15.9-12.323,12.444a2.707,2.707,0,0,0-3.148-.06c-1.216.917-1.282,2.553-1.19,4.017.074,1.176.233,2.343.3,3.521.042.781.09,2.485-.377,3.136a.672.672,0,0,1-.22.2,2.272,2.272,0,0,1-.992.31" transform="translate(-717.714 -367.951)" fill="#f090a8" fill-rule="evenodd"/>
      <path id="Path_457" data-name="Path 457" d="M221.037,696.166a4.285,4.285,0,0,1-.76,1.443c-3.468,4.322-4.5,9.636-4.251,15.1a4.3,4.3,0,0,1-1.359,3.365,3.918,3.918,0,0,1-3.685.934,57.823,57.823,0,0,0-24.74-.964,3.9,3.9,0,0,1-3.281-.952,4.248,4.248,0,0,1-1.416-2.939c-.322-5.017-3.524-10.646-6.249-14.7q-.091-.135-.171-.275a12.479,12.479,0,0,0,4.085-.615c1.539-.49,3.12-1.185,4.628-1.782,2.116-.838,4.246-1.646,6.416-2.331,2.025-.64,8.486-2.506,10.3-.83.936.866.468,3.264.216,4.3a12.52,12.52,0,0,0-.215,6.019,5.2,5.2,0,0,0,3.154,3.69,5.751,5.751,0,0,0,4.831-.564c2.709-1.555,3.035-4.819,2.891-7.658-.034-.66-.093-1.316-.155-1.972,3.14,1.409,6.618,2.059,9.765.733" transform="translate(-166.225 -655.342)" fill="#ba2f52" fill-rule="evenodd"/>
      <path id="Path_458" data-name="Path 458" d="M299.927,781.967q1.6.329,3.18.748a1.117,1.117,0,0,0,1.081-.282,1.413,1.413,0,0,0,.446-1.131,27.26,27.26,0,0,1,2.02-12.312v0a14.951,14.951,0,0,1-3.369-.807Zm-6.721-.981q2.518.219,5,.654l1.1-4.51c-.06.038-.121.075-.184.111a5.751,5.751,0,0,1-4.831.564,4.773,4.773,0,0,1-.715-.334Zm-5.417-.224q1.824-.007,3.629.1l.519-4.938a6.131,6.131,0,0,1-.8-1.8,12.519,12.519,0,0,1,.215-6.02c.251-1.035.719-3.432-.216-4.3-.92-.852-3.044-.788-5.174-.436Zm-6.892.409q2.565-.292,5.095-.375l-1.8-17.085c-1.4.319-2.651.692-3.358.916-1.232.389-2.451.818-3.662,1.269Zm-9.461-13.013q3.987,6.954,4.329,12.273a1.387,1.387,0,0,0,.464.981,1.115,1.115,0,0,0,.963.286q.983-.168,1.961-.3l-3.6-14.877q-.563.219-1.125.442c-.975.386-1.981.814-2.987,1.2" transform="translate(-257.641 -723.802)" fill="#f5c390" fill-rule="evenodd"/>
      <path id="Path_459" data-name="Path 459" d="M288.5,121.2c.188,3.528-1.975,6.8-4.145,9.144q-.1.112-.209.222l-.038.039a21.59,21.59,0,0,1-1.838,1.7c-2.458,2.04-5.2,3.545-7.829,5.363q19.094-7.722,14.059-16.469" transform="translate(-260.495 -114.951)" fill="#fff" fill-rule="evenodd"/>
      <path id="Path_460" data-name="Path 460" d="M947.9,382.421l-.012,0h0c-.639,2.9-3.271,5.7-7.948,6.73,2.012,2.009,6.389.733,7.963-6.725" transform="translate(-892.172 -362.715)" fill="#fff" fill-rule="evenodd"/>
      <path id="Path_461" data-name="Path 461" d="M497.991,269.084a12.3,12.3,0,0,0-4.41-1.162c-6.038-.52-15.965,2.83-19.05,7.794a36.172,36.172,0,0,1,23.46-6.632" transform="translate(-450.414 -254.07)" fill="#fff" fill-rule="evenodd"/>
      <path id="Path_462" data-name="Path 462" d="M150.883,530.75c-7.022-2.149-20.663,4.795-24.508,3.379l-.009,0c5.394,3.164,17.448-5.151,24.516-3.382" transform="translate(-119.945 -503.012)" fill="#fff" fill-rule="evenodd"/>
    </g>
  </g>
</svg>
